<svg xmlns="http://www.w3.org/2000/svg" width="25" height="24" fill="none"><g clip-path="url(#a)"><path fill="#fff" d="M21.097 19.597H17.69V14.26c0-1.273-.022-2.91-1.772-2.91-1.775 0-2.047 1.386-2.047 2.817v5.43h-3.408V8.621h3.272v1.5h.046a3.585 3.585 0 0 1 3.228-1.773c3.454 0 4.09 2.272 4.09 5.227v6.02ZM6.617 7.122a1.977 1.977 0 1 1 0-3.955 1.977 1.977 0 0 1 0 3.955Zm1.704 12.475H4.91V8.622H8.32v10.975ZM22.796.002H3.197A1.678 1.678 0 0 0 1.5 1.659v19.68A1.68 1.68 0 0 0 3.197 23h19.599a1.683 1.683 0 0 0 1.704-1.66V1.659A1.682 1.682 0 0 0 22.796 0"/></g><defs><clipPath id="a"><path fill="#fff" d="M.5 0h24v24H.5z"/></clipPath></defs></svg>